<svg xmlns="http://www.w3.org/2000/svg" xmlns:bx="https://boxy-svg.com" viewBox="0 0 500 150">

  <path d="M 51.716 78.564 L 46.249 92.46 C 45.49 94.586 44.806 96.788 44.199 99.066 C 43.591 101.344 42.945 103.338 42.262 105.046 C 41.579 106.754 40.535 108.102 39.13 109.089 C 37.725 110.077 36.15 110.817 34.403 111.31 C 32.657 111.804 30.854 112.013 28.993 111.937 C 27.132 111.861 25.481 111.519 24.038 110.911 C 20.773 109.393 19.634 106.887 20.621 103.394 C 24.114 88.056 27.399 75.754 30.474 66.49 C 33.549 57.227 36.093 49.938 38.105 44.622 C 40.117 39.307 42.224 33.688 44.426 27.764 C 44.654 25.562 45.565 23.588 47.16 21.842 C 48.755 20.096 50.634 18.653 52.798 17.513 C 54.962 16.375 57.221 15.559 59.575 15.065 C 61.929 14.571 64.017 14.514 65.84 14.894 C 67.662 15.274 69.01 16.109 69.883 17.4 C 70.756 18.691 70.813 20.551 70.054 22.981 C 67.321 29.967 65.384 34.902 64.245 37.788 C 63.106 40.674 62.081 43.255 61.17 45.533 L 57.981 53.05 C 59.575 53.126 61.587 52.899 64.017 52.367 C 68.421 51.38 71.61 51.038 73.585 51.342 C 73.585 50.962 73.775 50.317 74.154 49.405 C 76.281 40.142 78.673 31.638 81.33 23.892 C 83.229 17.514 88.126 14.173 96.023 13.869 C 99.136 13.869 101.49 14.629 103.085 16.147 C 104.832 17.742 105.059 19.906 103.768 22.639 C 96.783 42.23 91.847 57.682 88.961 68.996 C 85.696 82.057 83.551 90.865 82.526 95.421 C 81.501 99.977 80.608 102.673 79.849 103.508 C 79.09 104.344 78.311 104.932 77.514 105.273 C 76.717 105.615 75.938 105.938 75.179 106.242 C 74.42 106.546 73.812 107.305 73.357 108.52 L 73.015 108.52 C 72.408 109.887 71.079 110.95 69.029 111.709 C 66.979 112.469 64.91 112.753 62.821 112.563 C 60.733 112.373 58.987 111.614 57.582 110.285 C 56.177 108.957 55.817 106.925 56.5 104.191 C 57.259 99.863 58.512 95.213 60.259 90.239 C 62.005 85.265 63.391 81.374 64.416 78.564 C 65.441 75.755 66.296 73.135 66.979 70.705 C 66.371 71.009 65.782 71.236 65.213 71.388 C 64.644 71.54 63.941 71.825 63.106 72.242 C 62.271 72.66 61.416 73.021 60.543 73.324 C 59.67 73.628 58.816 73.932 57.981 74.236 C 55.854 75.072 54.108 75.907 52.741 76.741 L 51.716 78.564 Z M 64.587 70.933 C 64.663 70.933 65.043 70.819 65.726 70.591 C 65.27 70.743 64.89 70.857 64.587 70.933 Z M 107.4 54.759 C 108.995 53.62 110.969 53.354 113.323 53.961 C 113.778 54.037 114.234 54.075 114.689 54.075 C 116.36 50.659 119.245 48.874 123.346 48.722 C 124.409 48.646 125.889 48.457 127.788 48.153 C 129.686 47.849 131.983 47.925 134.679 48.38 C 137.374 48.836 139.747 49.634 141.798 50.772 C 146.278 53.202 148.974 56.695 149.885 61.251 C 151.707 67.933 151.441 75.223 149.087 83.12 C 146.582 91.852 142.329 98.838 136.33 104.077 C 133.597 106.507 130.711 108.045 127.674 108.69 C 124.637 109.336 121.903 109.697 119.473 109.772 C 117.043 109.848 114.822 109.867 112.81 109.829 C 110.798 109.791 108.843 109.583 106.944 109.203 C 102.844 108.368 99.465 106.432 96.807 103.394 C 93.694 99.978 92.365 94.662 92.821 87.448 C 93.124 81.07 94.738 74.634 97.661 68.142 C 100.585 61.65 103.831 57.189 107.4 54.759 Z M 127.446 77.653 C 125.548 78.261 123.764 78.526 122.093 78.45 C 121.258 79.286 120.517 80.178 119.872 81.127 C 119.227 82.076 118.372 82.949 117.309 83.746 C 116.246 84.544 115.715 84.866 115.715 84.714 C 114.424 86.537 113.36 88.416 112.525 90.352 C 111.69 92.289 111.69 94.244 112.525 96.218 C 115.562 96.522 117.802 96.447 119.245 95.991 C 120.688 95.535 122.036 94.662 123.289 93.371 C 124.542 92.081 125.51 90.562 126.193 88.815 C 127.56 85.55 127.978 81.829 127.446 77.653 Z M 170.158 54.075 C 175.245 52.025 178.662 51.987 180.409 53.961 C 181.32 55.025 181.776 56.506 181.776 58.404 L 181.776 58.973 C 184.585 55.708 189.483 52.974 196.469 50.772 C 203.834 48.494 209.909 47.849 214.693 48.836 C 220.92 50.127 224.413 54.189 225.172 61.023 C 225.779 66.795 224.45 74.122 221.185 83.006 C 220.122 85.284 219.305 87.126 218.736 88.53 C 218.167 89.935 217.654 91.207 217.199 92.346 C 216.212 94.472 214.655 97.016 212.529 99.977 C 211.314 102.255 209.434 104.002 206.891 105.216 C 204.347 106.432 201.841 107.134 199.373 107.324 C 196.905 107.514 194.874 107.134 193.28 106.185 C 191.685 105.236 191.23 103.736 191.913 101.686 C 193.659 96.978 195.102 92.688 196.241 88.815 C 197.38 84.943 198.557 81.64 199.772 78.906 C 200.911 75.034 201.062 72.604 200.227 71.616 C 199.544 70.857 198.367 70.971 196.697 71.958 C 195.254 72.869 194.228 73.932 193.621 75.147 C 192.254 76.135 189.673 80.083 185.876 86.992 C 184.813 88.891 183.769 90.77 182.744 92.63 C 181.719 94.491 180.769 96.219 179.896 97.813 C 179.023 99.408 178.263 100.737 177.618 101.799 C 176.973 102.863 176.403 103.565 175.91 103.907 C 175.416 104.249 174.998 104.476 174.657 104.59 C 174.315 104.704 174.03 104.837 173.803 104.989 C 173.575 105.141 173.385 105.634 173.233 106.469 C 172.93 108.216 171.107 109.507 167.766 110.342 C 162.375 111.709 157.515 111.481 153.187 109.659 C 151.744 109.051 150.605 108.216 149.77 107.153 C 148.023 103.66 151.023 91.776 158.768 71.502 C 161.501 64.364 163.286 60.112 164.121 58.745 C 166.02 55.86 167.254 54.228 167.823 53.848 C 168.392 53.468 169.171 53.544 170.158 54.075 Z M 229.554 68.541 C 229.554 68.541 229.563 67.763 229.582 66.206 C 229.601 64.65 229.345 62.884 228.813 60.909 C 228.282 58.935 228.301 57.284 228.87 55.955 C 229.439 54.626 230.351 53.696 231.604 53.164 C 232.857 52.633 234.337 52.462 236.046 52.652 C 237.755 52.842 239.444 53.354 241.114 54.189 C 245.139 56.012 247.948 58.594 249.543 61.934 C 249.923 63.605 249.79 65.674 249.144 68.142 C 248.499 70.61 247.758 73.154 246.923 75.773 C 246.088 78.393 245.29 80.937 244.531 83.405 C 243.772 85.873 243.468 87.942 243.62 89.612 C 245.595 88.398 247.322 86.575 248.803 84.145 C 250.284 81.715 251.65 79.115 252.903 76.343 C 254.156 73.571 255.333 70.819 256.434 68.085 C 257.535 65.352 258.598 63.188 259.623 61.593 C 260.648 59.999 261.465 58.727 262.072 57.777 C 262.679 56.828 263.287 55.974 263.894 55.214 C 264.881 53.924 266.172 52.671 267.767 51.456 C 268.222 51.076 269.608 51.133 271.924 51.626 C 274.24 52.12 275.949 52.462 277.05 52.652 C 278.151 52.842 278.891 52.785 279.271 52.481 L 280.866 51.342 C 282.992 50.279 285.498 50.317 288.383 51.456 C 291.192 52.671 292.673 54.531 292.825 57.037 C 292.749 57.113 292.711 57.265 292.711 57.492 L 293.053 57.606 L 292.256 58.29 C 291.724 59.277 291.325 59.941 291.06 60.283 C 290.794 60.625 290.243 61.137 289.408 61.821 C 284.245 67.364 278.322 77.653 271.64 92.687 C 269.969 96.409 268.451 99.75 267.084 102.711 C 269.134 104.002 270.691 105.672 271.754 107.722 C 272.817 109.773 272.817 112.013 271.754 114.442 C 265.451 119.454 261.92 124.162 261.161 128.566 C 260.781 131.3 260.306 133.236 259.737 134.375 C 259.168 135.514 258.275 136.615 257.06 137.678 C 252.96 140.716 248.138 139.956 242.595 135.4 C 238.646 131.452 238.457 126.516 242.026 120.593 C 242.937 118.999 243.81 117.328 244.645 115.581 C 245.86 113 247.797 109.165 250.454 104.077 C 243.924 107.874 237.925 107.798 232.458 103.85 C 228.585 100.889 227.219 94.169 228.358 83.689 C 229.117 76.704 229.516 71.655 229.554 68.541 Z M 342.472 54.531 L 342.928 54.645 C 343.079 54.645 343.155 54.683 343.155 54.759 C 345.13 54 346.762 54.569 348.053 56.467 C 348.888 57.759 349.534 59.733 349.989 62.39 C 350.141 66.035 349.761 71.085 348.85 77.539 C 347.104 90.6 346.155 98.383 346.003 100.888 C 346.155 103.546 344.522 105.369 341.105 106.355 C 338.144 107.267 335.182 107.229 332.221 106.242 C 329.108 105.179 327.817 103.546 328.348 101.344 C 327.741 102.483 327.133 103.299 326.526 103.793 C 325.919 104.287 324.723 104.97 322.938 105.843 C 321.154 106.717 318.629 107.438 315.364 108.007 C 312.099 108.577 308.833 108.729 305.568 108.463 C 302.303 108.197 299.323 107.4 296.627 106.071 C 293.932 104.742 292.128 102.673 291.217 99.863 C 289.47 94.396 289.698 87.448 291.9 79.019 C 293.419 73.477 296.152 68.579 300.101 64.326 C 304.657 59.467 309.821 55.443 315.592 52.253 C 319.92 49.899 324.096 48.495 328.121 48.039 C 329.488 47.887 330.683 47.925 331.708 48.153 C 332.733 48.381 333.835 48.608 335.012 48.836 C 336.189 49.064 337.309 49.406 338.372 49.861 C 341.105 51.001 342.472 52.557 342.472 54.531 Z M 321.401 84.714 C 321.932 83.652 322.369 82.323 322.71 80.728 C 323.052 79.134 323.527 77.387 324.134 75.489 C 317.983 77.995 313.276 81.07 310.011 84.714 C 306.442 88.739 306.669 91.511 310.694 93.029 C 314.187 93.941 316.73 93.371 318.325 91.321 C 319.008 90.41 319.616 89.271 320.148 87.904 C 320.679 86.537 321.325 85.132 322.084 83.689 C 321.856 84.069 321.628 84.411 321.401 84.714 Z M 373.79 13.983 C 375.461 11.933 377.473 10.794 379.827 10.566 C 382.18 10.338 384.458 10.699 386.661 11.648 C 388.863 12.597 390.742 14.04 392.299 15.976 C 393.856 17.912 394.71 20.057 394.861 22.411 L 393.836 25.714 C 394.671 26.702 395.412 27.499 396.057 28.106 C 396.702 28.714 397.063 29.663 397.139 30.954 C 397.595 32.017 395.697 36.231 391.444 43.597 C 389.698 46.635 387.857 49.805 385.92 53.107 C 383.984 56.411 382.408 59.353 381.193 61.934 C 382.104 61.707 383.016 61.517 383.927 61.365 C 384.838 61.213 385.75 61.023 386.661 60.795 C 392.28 59.353 396.076 58.612 398.051 58.574 C 400.025 58.536 401.657 58.745 402.948 59.201 C 406.441 60.568 408.264 62.694 408.415 65.579 C 407.352 68.085 403.366 71.578 396.456 76.058 C 394.861 77.046 393.57 77.881 392.583 78.564 L 382.674 85.626 C 382.143 86.462 381.763 87.259 381.535 88.018 L 381.535 88.131 C 381.687 88.511 382.655 89.043 384.44 89.726 C 386.224 90.41 387.761 91.017 389.052 91.548 C 392.089 92.916 394.785 94.776 397.139 97.13 C 397.898 97.965 398.392 99.199 398.62 100.831 C 398.848 102.464 398.601 103.964 397.88 105.33 C 397.159 106.698 395.887 107.685 394.064 108.292 C 392.241 108.9 389.698 108.634 386.433 107.494 C 381.649 105.368 375.992 100.623 369.462 93.257 C 368.703 95.915 367.962 98.515 367.241 101.059 C 366.52 103.603 365.741 106.204 364.906 108.861 C 363.767 111.443 361.109 112.658 356.933 112.506 C 355.262 112.506 353.763 112.165 352.434 111.481 C 351.105 110.798 350.326 109.887 350.099 108.747 C 349.491 107.077 349.187 105.844 349.187 105.046 C 349.187 104.249 349.377 103.319 349.757 102.255 C 351.504 97.851 352.605 94.339 353.06 91.719 C 353.515 89.1 353.819 87.562 353.971 87.106 C 351.845 85.74 350.592 83.576 350.213 80.614 C 349.757 77.729 350.44 75.147 352.263 72.869 C 354.693 71.958 356.439 71.275 357.502 70.819 C 357.958 67.933 358.717 64.82 359.78 61.479 C 361.679 55.481 363.14 50.279 364.165 45.875 C 365.19 41.471 366.671 36.478 368.607 30.897 C 370.544 25.316 372.271 19.678 373.79 13.983 Z M 420.378 53.392 C 422.504 51.342 424.877 50.146 427.496 49.804 C 430.116 49.463 432.432 49.748 434.444 50.658 C 436.457 51.57 437.937 53.031 438.886 55.043 C 439.835 57.056 439.703 59.353 438.488 61.934 C 435.906 65.731 433.856 69.832 432.337 74.236 C 430.818 78.64 429.414 83.082 428.123 87.562 C 435.109 83.158 440.956 76.59 445.663 67.857 C 447.03 65.276 448.511 62.656 450.105 59.998 L 451.814 56.809 L 455.231 51.342 C 455.686 49.9 456.484 48.969 457.623 48.551 C 458.762 48.134 459.996 47.925 461.325 47.925 C 462.654 47.925 464.001 47.944 465.368 47.982 C 466.735 48.02 467.988 47.66 469.127 46.9 C 470.266 46.141 471.613 45.856 473.17 46.045 C 474.727 46.235 476.132 46.748 477.385 47.583 C 478.638 48.419 479.587 49.425 480.232 50.601 C 480.877 51.779 480.934 52.937 480.403 54.075 C 477.214 60.909 472.847 73.628 467.304 92.232 C 466.013 96.408 464.799 99.901 463.66 102.711 C 461.761 105.065 459.369 106.66 456.484 107.494 C 453.599 108.33 450.884 108.577 448.34 108.235 C 445.796 107.893 443.765 107.02 442.246 105.615 C 440.727 104.211 440.386 102.445 441.221 100.319 C 439.095 102.065 436.893 103.66 434.615 105.103 C 432.337 106.546 429.584 107.495 426.357 107.95 C 423.13 108.406 420.036 108.273 417.074 107.551 C 414.113 106.83 411.588 105.444 409.5 103.394 C 407.412 101.344 406.292 98.611 406.14 95.193 C 405.685 83.196 410.431 69.262 420.378 53.392 Z" />
</svg>
